<svg width="175" height="162" viewBox="0 0 175 162" fill="none" xmlns="http://www.w3.org/2000/svg">
<path d="M6 90.5136V97.0305H170V92.4244C170 85.6068 169.539 79.1303 168.634 72.9805H7.21004C6.42484 78.4644 6 84.2978 6 90.5136Z" fill="url(#paint0_linear)"/>
<path d="M31.6085 21.8792C27.0051 26.5904 22.7748 31.9727 19.1348 38.1167H156.636C153.844 33.4697 150.627 29.1361 146.959 25.1352C143.27 21.111 139.286 17.5832 135.023 14.5254H39.7651C36.9178 16.7599 34.2131 19.2132 31.6085 21.8792Z" fill="url(#paint1_linear)"/>
<path d="M170 102.666H6V118H170V102.666Z" fill="url(#paint2_linear)"/>
<path d="M16.0639 43.7515C12.6167 50.7034 9.90209 58.5359 8.16211 67.3427H167.656C165.949 58.7832 163.292 50.9256 159.709 43.7515H16.0639Z" fill="url(#paint3_linear)"/>
<path d="M125.76 8.89025C114.236 2.9797 100.972 0 85.9386 0C70.2108 0 58.179 3.20262 48.1309 8.89025H125.76Z" fill="url(#paint4_linear)"/>
<path d="M65.4247 62.7188H58.6334C57.5161 62.7237 56.0341 63.4765 56.0352 65.5247C56.0358 67.3751 56.0352 74.0678 56.0352 81.677C56.26 83.4887 56.5641 83.9346 57.7608 84.8343C58.8992 85.6901 59.8431 85.7334 61.0531 85.7334C62.057 85.7334 69.1964 85.7334 71.349 85.6915C70.1175 85.7156 73.3377 85.5366 74.3642 86.3467C76.1492 87.7554 75.9547 90.8338 75.9513 94.6794C75.9438 102.535 75.9247 112.519 75.9513 117.955C82.5458 117.955 97.8429 117.999 97.8429 117.999C97.8429 117.999 97.8429 94.3396 97.8429 80.3472C97.8429 80.3472 97.8429 75.1354 101.969 75.1061C106.201 75.0764 113.402 75.0297 113.402 75.0297C113.402 75.0297 117.847 75.2526 117.847 70.3468C117.847 65.441 117.741 49.385 117.741 49.385C117.741 49.385 117.861 46.4869 114.474 46.4869C109.819 46.4869 114.258 46.4869 109.912 46.4869C109.912 46.4869 106.45 46.2567 106.45 49.2109C106.45 52.0005 106.45 61.1478 106.45 61.1478C106.45 61.1478 106.282 63.6848 103.961 63.6848C101.591 63.6848 99.6122 63.6848 99.8743 63.6848C99.8743 63.6848 97.7637 63.667 97.7637 61.2117C97.7637 58.7776 97.7456 35.2261 97.7456 35.2261C97.7456 35.2261 97.878 31.8797 94.598 31.8801C89.5589 31.8801 76.9426 31.8801 79.68 31.8801C79.68 31.8801 75.9492 31.5881 75.9513 35.2303C75.9117 38.6269 75.9759 72.1236 75.9513 72.0193C75.9513 72.0193 75.952 75.0297 74.0448 75.0297C72.1949 75.0297 70.157 75.0297 70.157 75.0297C70.157 75.0297 67.7574 75.2582 67.6991 71.5724C67.6882 70.875 67.6991 65.5108 67.6991 65.5108C67.6994 63.4765 66.4826 62.7655 65.4247 62.7188Z" fill="#0D1A4E"/>
<path d="M8.12 159.3C6.6 159.3 5.26 159.007 4.1 158.42C2.95333 157.833 2.06667 156.993 1.44 155.9C0.813333 154.793 0.5 153.5 0.5 152.02C0.5 150.54 0.813333 149.253 1.44 148.16C2.06667 147.053 2.95333 146.207 4.1 145.62C5.26 145.02 6.6 144.72 8.12 144.72C9.12 144.72 10.0133 144.82 10.8 145.02C11.5867 145.22 12.3133 145.533 12.98 145.96V149.32C12.3933 148.853 11.7267 148.513 10.98 148.3C10.2467 148.087 9.4 147.98 8.44 147.98C7.06667 147.98 6.00667 148.34 5.26 149.06C4.51333 149.767 4.14 150.753 4.14 152.02C4.14 153.287 4.51333 154.28 5.26 155C6.02 155.72 7.08 156.08 8.44 156.08C9.4 156.08 10.26 155.967 11.02 155.74C11.78 155.513 12.4867 155.153 13.14 154.66V158C11.8733 158.867 10.2 159.3 8.12 159.3ZM18.0598 159.3C16.8598 159.3 15.8865 159.013 15.1398 158.44C14.4065 157.853 14.0398 157.04 14.0398 156C14.0398 154.92 14.3932 154.093 15.0998 153.52C15.8198 152.933 16.8465 152.64 18.1798 152.64C18.6998 152.64 19.2198 152.7 19.7398 152.82C20.2598 152.927 20.7065 153.073 21.0798 153.26V153.06C21.0798 152.033 20.2398 151.52 18.5598 151.52C17.3865 151.52 16.3132 151.747 15.3398 152.2V149.78C15.7665 149.58 16.3265 149.42 17.0198 149.3C17.7132 149.167 18.4332 149.1 19.1798 149.1C20.9665 149.1 22.3132 149.46 23.2198 150.18C24.1398 150.887 24.5998 151.88 24.5998 153.16V159H21.2998V158.18C20.9398 158.527 20.4865 158.8 19.9398 159C19.3932 159.2 18.7665 159.3 18.0598 159.3ZM19.0998 157.14C19.5132 157.14 19.8998 157.06 20.2598 156.9C20.6198 156.727 20.8932 156.507 21.0798 156.24V155.4C20.5065 155.013 19.8532 154.82 19.1198 154.82C18.6532 154.82 18.2932 154.92 18.0398 155.12C17.7865 155.32 17.6598 155.613 17.6598 156C17.6598 156.36 17.7798 156.64 18.0198 156.84C18.2732 157.04 18.6332 157.14 19.0998 157.14ZM31.4247 159.3C29.6647 159.3 28.2714 158.86 27.2447 157.98C26.218 157.1 25.7047 155.847 25.7047 154.22C25.7047 152.593 26.218 151.333 27.2447 150.44C28.2847 149.547 29.6847 149.1 31.4447 149.1C32.2314 149.1 32.9647 149.18 33.6447 149.34C34.338 149.487 34.9114 149.7 35.3647 149.98V152.72C34.5514 152.133 33.478 151.84 32.1447 151.84C31.2914 151.84 30.6047 152.04 30.0847 152.44C29.578 152.827 29.3247 153.42 29.3247 154.22C29.3247 155.033 29.578 155.633 30.0847 156.02C30.5914 156.393 31.2714 156.58 32.1247 156.58C33.418 156.58 34.538 156.273 35.4847 155.66V158.38C34.4714 158.993 33.118 159.3 31.4247 159.3ZM41.2459 159.3C40.0593 159.3 39.1593 158.973 38.5459 158.32C37.9459 157.653 37.6459 156.747 37.6459 155.6V151.84H36.2859V149.4H37.6459V146.52H41.1659V149.4H43.3659V151.84H41.1659V155.12C41.1659 155.64 41.2593 156.013 41.4459 156.24C41.6459 156.467 41.9926 156.58 42.4859 156.58C42.9259 156.58 43.3659 156.46 43.8059 156.22V158.84C43.4593 159 43.0859 159.113 42.6859 159.18C42.2993 159.26 41.8193 159.3 41.2459 159.3ZM48.7631 159.3C47.4431 159.3 46.4498 158.933 45.7831 158.2C45.1298 157.467 44.8031 156.5 44.8031 155.3V149.4H48.3231V154.9C48.3231 156.007 48.8231 156.56 49.8231 156.56C50.2765 156.56 50.6898 156.453 51.0631 156.24C51.4365 156.027 51.7431 155.713 51.9831 155.3V149.4H55.5031V159H52.1031V157.96C51.6898 158.4 51.1898 158.733 50.6031 158.96C50.0165 159.187 49.4031 159.3 48.7631 159.3ZM61.6455 159.3C60.8721 159.3 60.0655 159.22 59.2255 159.06C58.3855 158.913 57.7188 158.7 57.2255 158.42V155.84C57.7721 156.16 58.4255 156.427 59.1855 156.64C59.9588 156.84 60.6655 156.94 61.3055 156.94C61.7721 156.94 62.1121 156.907 62.3255 156.84C62.5388 156.773 62.6455 156.64 62.6455 156.44C62.6455 156.28 62.5721 156.153 62.4255 156.06C62.2921 155.953 62.0388 155.847 61.6655 155.74C61.3055 155.62 60.8855 155.493 60.4055 155.36C59.5921 155.12 58.9521 154.873 58.4855 154.62C58.0188 154.367 57.6721 154.047 57.4455 153.66C57.2188 153.273 57.1055 152.787 57.1055 152.2C57.1055 151.16 57.5121 150.387 58.3255 149.88C59.1521 149.36 60.2788 149.1 61.7055 149.1C62.3988 149.1 63.1255 149.173 63.8855 149.32C64.6588 149.467 65.2388 149.66 65.6255 149.9V152.44C65.2255 152.173 64.6921 151.953 64.0255 151.78C63.3721 151.607 62.7588 151.52 62.1855 151.52C61.7321 151.52 61.3788 151.567 61.1255 151.66C60.8721 151.74 60.7455 151.887 60.7455 152.1C60.7455 152.3 60.8721 152.453 61.1255 152.56C61.3788 152.667 61.8321 152.8 62.4855 152.96C62.9121 153.067 63.0921 153.113 63.0255 153.1C63.8788 153.327 64.5388 153.58 65.0055 153.86C65.4721 154.14 65.7988 154.473 65.9855 154.86C66.1855 155.233 66.2855 155.713 66.2855 156.3C66.2855 157.22 65.8855 157.953 65.0855 158.5C64.2988 159.033 63.1521 159.3 61.6455 159.3ZM67.8812 145.02H72.9012C74.4346 145.02 75.7746 145.3 76.9212 145.86C78.0679 146.42 78.9479 147.227 79.5612 148.28C80.1879 149.32 80.5012 150.54 80.5012 151.94C80.5012 154.26 79.8212 156.02 78.4612 157.22C77.1012 158.407 75.2146 159 72.8012 159H67.8812V145.02ZM73.1012 156.02C74.3146 156.02 75.2412 155.653 75.8812 154.92C76.5346 154.187 76.8612 153.193 76.8612 151.94C76.8612 150.793 76.5346 149.853 75.8812 149.12C75.2412 148.373 74.3546 148 73.2212 148H71.4212V156.02H73.1012ZM85.1192 159.3C83.9192 159.3 82.9459 159.013 82.1992 158.44C81.4659 157.853 81.0992 157.04 81.0992 156C81.0992 154.92 81.4526 154.093 82.1592 153.52C82.8792 152.933 83.9059 152.64 85.2392 152.64C85.7592 152.64 86.2792 152.7 86.7992 152.82C87.3192 152.927 87.7659 153.073 88.1392 153.26V153.06C88.1392 152.033 87.2992 151.52 85.6192 151.52C84.4459 151.52 83.3726 151.747 82.3992 152.2V149.78C82.8259 149.58 83.3859 149.42 84.0792 149.3C84.7726 149.167 85.4926 149.1 86.2392 149.1C88.0259 149.1 89.3726 149.46 90.2792 150.18C91.1992 150.887 91.6592 151.88 91.6592 153.16V159H88.3592V158.18C87.9992 158.527 87.5459 158.8 86.9992 159C86.4526 159.2 85.8259 159.3 85.1192 159.3ZM86.1592 157.14C86.5726 157.14 86.9592 157.06 87.3192 156.9C87.6792 156.727 87.9526 156.507 88.1392 156.24V155.4C87.5659 155.013 86.9126 154.82 86.1792 154.82C85.7126 154.82 85.3526 154.92 85.0992 155.12C84.8459 155.32 84.7192 155.613 84.7192 156C84.7192 156.36 84.8392 156.64 85.0792 156.84C85.3326 157.04 85.6926 157.14 86.1592 157.14ZM97.4017 159.3C96.6284 159.3 95.8217 159.22 94.9817 159.06C94.1417 158.913 93.4751 158.7 92.9817 158.42V155.84C93.5284 156.16 94.1817 156.427 94.9417 156.64C95.7151 156.84 96.4217 156.94 97.0617 156.94C97.5284 156.94 97.8684 156.907 98.0817 156.84C98.2951 156.773 98.4017 156.64 98.4017 156.44C98.4017 156.28 98.3284 156.153 98.1817 156.06C98.0484 155.953 97.7951 155.847 97.4217 155.74C97.0617 155.62 96.6417 155.493 96.1617 155.36C95.3484 155.12 94.7084 154.873 94.2417 154.62C93.7751 154.367 93.4284 154.047 93.2017 153.66C92.9751 153.273 92.8617 152.787 92.8617 152.2C92.8617 151.16 93.2684 150.387 94.0817 149.88C94.9084 149.36 96.0351 149.1 97.4617 149.1C98.1551 149.1 98.8817 149.173 99.6417 149.32C100.415 149.467 100.995 149.66 101.382 149.9V152.44C100.982 152.173 100.448 151.953 99.7817 151.78C99.1284 151.607 98.5151 151.52 97.9417 151.52C97.4884 151.52 97.1351 151.567 96.8817 151.66C96.6284 151.74 96.5017 151.887 96.5017 152.1C96.5017 152.3 96.6284 152.453 96.8817 152.56C97.1351 152.667 97.5884 152.8 98.2417 152.96C98.6684 153.067 98.8484 153.113 98.7817 153.1C99.6351 153.327 100.295 153.58 100.762 153.86C101.228 154.14 101.555 154.473 101.742 154.86C101.942 155.233 102.042 155.713 102.042 156.3C102.042 157.22 101.642 157.953 100.842 158.5C100.055 159.033 98.9084 159.3 97.4017 159.3ZM103.638 144.22H107.158V150.38C107.584 149.953 108.071 149.633 108.618 149.42C109.178 149.207 109.764 149.1 110.378 149.1C111.724 149.1 112.718 149.453 113.358 150.16C114.011 150.853 114.338 151.8 114.338 153V159H110.818V153.46C110.818 152.38 110.324 151.84 109.338 151.84C108.884 151.84 108.471 151.947 108.098 152.16C107.724 152.36 107.411 152.673 107.158 153.1V159H103.638V144.22ZM123.04 159.3C121.667 159.3 120.533 158.88 119.64 158.04V159H116.24V144.22H119.76V150.18C120.147 149.847 120.627 149.587 121.2 149.4C121.787 149.2 122.4 149.1 123.04 149.1C124.053 149.1 124.94 149.313 125.7 149.74C126.473 150.167 127.073 150.773 127.5 151.56C127.927 152.333 128.14 153.22 128.14 154.22C128.14 155.233 127.927 156.127 127.5 156.9C127.073 157.66 126.473 158.253 125.7 158.68C124.927 159.093 124.04 159.3 123.04 159.3ZM122.12 156.58C122.84 156.58 123.42 156.373 123.86 155.96C124.3 155.533 124.52 154.953 124.52 154.22C124.52 153.487 124.3 152.907 123.86 152.48C123.42 152.053 122.84 151.84 122.12 151.84C121.587 151.84 121.107 151.98 120.68 152.26C120.253 152.527 119.947 152.893 119.76 153.36V155.06C119.947 155.527 120.253 155.9 120.68 156.18C121.107 156.447 121.587 156.58 122.12 156.58ZM134.753 159.3C133.566 159.3 132.526 159.087 131.633 158.66C130.739 158.22 130.046 157.62 129.553 156.86C129.073 156.087 128.833 155.2 128.833 154.2C128.833 153.2 129.073 152.32 129.553 151.56C130.046 150.787 130.739 150.187 131.633 149.76C132.526 149.32 133.566 149.1 134.753 149.1C135.939 149.1 136.979 149.32 137.873 149.76C138.766 150.187 139.453 150.787 139.933 151.56C140.426 152.32 140.673 153.2 140.673 154.2C140.673 155.2 140.426 156.087 139.933 156.86C139.453 157.62 138.766 158.22 137.873 158.66C136.979 159.087 135.939 159.3 134.753 159.3ZM134.753 156.56C135.459 156.56 136.019 156.353 136.433 155.94C136.859 155.513 137.073 154.933 137.073 154.2C137.073 153.467 136.859 152.893 136.433 152.48C136.019 152.053 135.459 151.84 134.753 151.84C134.046 151.84 133.479 152.053 133.053 152.48C132.639 152.893 132.433 153.467 132.433 154.2C132.433 154.933 132.639 155.513 133.053 155.94C133.479 156.353 134.046 156.56 134.753 156.56ZM145.377 159.3C144.177 159.3 143.204 159.013 142.457 158.44C141.724 157.853 141.357 157.04 141.357 156C141.357 154.92 141.71 154.093 142.417 153.52C143.137 152.933 144.164 152.64 145.497 152.64C146.017 152.64 146.537 152.7 147.057 152.82C147.577 152.927 148.024 153.073 148.397 153.26V153.06C148.397 152.033 147.557 151.52 145.877 151.52C144.704 151.52 143.63 151.747 142.657 152.2V149.78C143.084 149.58 143.644 149.42 144.337 149.3C145.03 149.167 145.75 149.1 146.497 149.1C148.284 149.1 149.63 149.46 150.537 150.18C151.457 150.887 151.917 151.88 151.917 153.16V159H148.617V158.18C148.257 158.527 147.804 158.8 147.257 159C146.71 159.2 146.084 159.3 145.377 159.3ZM146.417 157.14C146.83 157.14 147.217 157.06 147.577 156.9C147.937 156.727 148.21 156.507 148.397 156.24V155.4C147.824 155.013 147.17 154.82 146.437 154.82C145.97 154.82 145.61 154.92 145.357 155.12C145.104 155.32 144.977 155.613 144.977 156C144.977 156.36 145.097 156.64 145.337 156.84C145.59 157.04 145.95 157.14 146.417 157.14ZM153.813 149.4H157.213V150.6C157.586 150.173 158.113 149.847 158.793 149.62C159.473 149.38 160.226 149.26 161.053 149.26V151.96C160.173 151.96 159.393 152.087 158.713 152.34C158.046 152.593 157.586 152.973 157.333 153.48V159H153.813V149.4ZM166.857 159.3C165.857 159.3 164.97 159.093 164.197 158.68C163.424 158.253 162.824 157.66 162.397 156.9C161.97 156.127 161.757 155.233 161.757 154.22C161.757 153.22 161.97 152.333 162.397 151.56C162.824 150.773 163.417 150.167 164.177 149.74C164.95 149.313 165.844 149.1 166.857 149.1C167.524 149.1 168.137 149.193 168.697 149.38C169.257 149.567 169.737 149.833 170.137 150.18V144.22H173.657V159H170.257V158.04C169.364 158.88 168.23 159.3 166.857 159.3ZM167.777 156.58C168.31 156.58 168.79 156.447 169.217 156.18C169.644 155.9 169.95 155.527 170.137 155.06V153.36C169.95 152.893 169.644 152.527 169.217 152.26C168.79 151.98 168.31 151.84 167.777 151.84C167.057 151.84 166.477 152.053 166.037 152.48C165.597 152.907 165.377 153.487 165.377 154.22C165.377 154.953 165.597 155.533 166.037 155.96C166.477 156.373 167.057 156.58 167.777 156.58Z" fill="#0D1A4E"/>
<defs>
<linearGradient id="paint0_linear" x1="80.2188" y1="42.0419" x2="90.3494" y2="100.704" gradientUnits="userSpaceOnUse">
<stop stop-color="#3D84E6"/>
<stop offset="1" stop-color="#1254CB"/>
</linearGradient>
<linearGradient id="paint1_linear" x1="88.303" y1="40.6452" x2="98.4336" y2="99.3071" gradientUnits="userSpaceOnUse">
<stop stop-color="#3D84E6"/>
<stop offset="1" stop-color="#1254CB"/>
</linearGradient>
<linearGradient id="paint2_linear" x1="76.8139" y1="42.6298" x2="86.9446" y2="101.292" gradientUnits="userSpaceOnUse">
<stop stop-color="#3D84E6"/>
<stop offset="1" stop-color="#1254CB"/>
</linearGradient>
<linearGradient id="paint3_linear" x1="83.6309" y1="41.4497" x2="93.7616" y2="100.112" gradientUnits="userSpaceOnUse">
<stop stop-color="#3D84E6"/>
<stop offset="1" stop-color="#1254CB"/>
</linearGradient>
<linearGradient id="paint4_linear" x1="92.0841" y1="39.9919" x2="102.215" y2="98.6538" gradientUnits="userSpaceOnUse">
<stop stop-color="#3D84E6"/>
<stop offset="1" stop-color="#1254CB"/>
</linearGradient>
</defs>
</svg>
