<svg width="171" height="118" viewBox="0 0 171 118" fill="none" xmlns="http://www.w3.org/2000/svg">
<path d="M30.5 61.3654V65.7836H140.5V62.6608C140.5 58.0387 140.191 53.6479 139.584 49.4785H31.3116C30.785 53.1964 30.5 57.1513 30.5 61.3654Z" fill="url(#paint0_linear_3128_1815)"/>
<path d="M47.6763 14.8333C44.5887 18.0273 41.7513 21.6763 39.3098 25.8418H131.536C129.664 22.6912 127.506 19.7532 125.046 17.0407C122.571 14.3125 119.899 11.9207 117.04 9.84766H53.1472C51.2374 11.3626 49.4233 13.0258 47.6763 14.8333Z" fill="url(#paint1_linear_3128_1815)"/>
<path d="M140.5 69.604H30.5V79.9999H140.5V69.604Z" fill="url(#paint2_linear_3128_1815)"/>
<path d="M37.2502 29.6621C34.938 34.3753 33.1173 39.6854 31.9502 45.6561H138.928C137.783 39.8531 136.001 34.5259 133.598 29.6621H37.2502Z" fill="url(#paint3_linear_3128_1815)"/>
<path d="M110.827 6.02729C103.097 2.02014 94.2007 0 84.1174 0C73.5682 0 65.4981 2.17127 58.7585 6.02729H110.827Z" fill="url(#paint4_linear_3128_1815)"/>
<path d="M70.3579 42.5212H65.8028C65.0533 42.5246 64.0593 43.0349 64.0601 44.4235C64.0605 45.678 64.0601 50.2155 64.0601 55.3743C64.2108 56.6025 64.4148 56.9048 65.2175 57.5148C65.981 58.095 66.6141 58.1244 67.4257 58.1244C68.0991 58.1244 72.8877 58.1244 74.3315 58.0959C73.5055 58.1123 75.6654 57.9909 76.3539 58.5402C77.5512 59.4952 77.4207 61.5823 77.4184 64.1894C77.4134 69.5153 77.4006 76.2841 77.4184 79.9695C81.8416 79.9695 92.1018 79.9993 92.1018 79.9993C92.1018 79.9993 92.1018 63.9591 92.1018 54.4727C92.1018 54.4727 92.1018 50.9393 94.8693 50.9194C97.7079 50.8993 102.538 50.8676 102.538 50.8676C102.538 50.8676 105.519 51.0187 105.519 47.6928C105.519 44.3668 105.448 33.4814 105.448 33.4814C105.448 33.4814 105.529 31.5166 103.257 31.5166C100.135 31.5166 103.112 31.5166 100.197 31.5166C100.197 31.5166 97.8749 31.3605 97.8749 33.3633C97.8749 35.2546 97.8749 41.4562 97.8749 41.4562C97.8749 41.4562 97.7622 43.1762 96.2054 43.1762C94.6158 43.1762 93.2885 43.1762 93.4643 43.1762C93.4643 43.1762 92.0487 43.1641 92.0487 41.4995C92.0487 39.8492 92.0365 23.8821 92.0365 23.8821C92.0365 23.8821 92.1254 21.6134 89.9254 21.6136C86.5455 21.6136 78.0833 21.6136 79.9194 21.6136C79.9194 21.6136 77.417 21.4157 77.4184 23.885C77.3919 26.1877 77.4349 48.8974 77.4184 48.8267C77.4184 48.8267 77.4189 50.8676 76.1397 50.8676C74.8989 50.8676 73.532 50.8676 73.532 50.8676C73.532 50.8676 71.9225 51.0225 71.8834 48.5237C71.8761 48.0509 71.8834 44.4141 71.8834 44.4141C71.8836 43.0349 71.0675 42.5529 70.3579 42.5212Z" fill="#0D1A4E"/>
<path d="M7.524 113.18C9.594 113.18 11.358 112.442 12.528 111.074L11.016 109.634C10.098 110.642 8.964 111.128 7.65 111.128C5.04 111.128 3.15 109.292 3.15 106.7C3.15 104.108 5.04 102.272 7.65 102.272C8.964 102.272 10.098 102.758 11.016 103.748L12.528 102.326C11.358 100.958 9.594 100.22 7.542 100.22C3.672 100.22 0.792 102.938 0.792 106.7C0.792 110.462 3.672 113.18 7.524 113.18ZM18.1382 103.28C16.5902 103.28 15.0962 103.676 14.0702 104.468L14.9522 106.106C15.6722 105.512 16.7882 105.152 17.8682 105.152C19.4702 105.152 20.2622 105.926 20.2622 107.24V107.384H17.7782C14.8622 107.384 13.7822 108.644 13.7822 110.246C13.7822 111.92 15.1682 113.126 17.3642 113.126C18.8042 113.126 19.8482 112.658 20.3882 111.83V113H22.5122V107.366C22.5122 104.594 20.9102 103.28 18.1382 103.28ZM17.8322 111.488C16.6802 111.488 15.9962 110.966 15.9962 110.156C15.9962 109.454 16.4102 108.878 17.9402 108.878H20.2622V109.994C19.8842 110.984 18.9302 111.488 17.8322 111.488ZM29.8977 113.126C31.7697 113.126 33.2637 112.316 34.0017 110.876L32.2737 109.868C31.6977 110.786 30.8337 111.2 29.8797 111.2C28.2237 111.2 26.9637 110.066 26.9637 108.194C26.9637 106.34 28.2237 105.188 29.8797 105.188C30.8337 105.188 31.6977 105.602 32.2737 106.52L34.0017 105.512C33.2637 104.054 31.7697 103.28 29.8977 103.28C26.8557 103.28 24.6957 105.314 24.6957 108.194C24.6957 111.074 26.8557 113.126 29.8977 113.126ZM41.2178 110.876C40.8758 111.146 40.4258 111.272 39.9578 111.272C39.0938 111.272 38.6258 110.768 38.6258 109.832V105.26H41.1998V103.46H38.6258V101.264H36.3758V103.46H34.7918V105.26H36.3758V109.886C36.3758 112.01 37.5818 113.126 39.6878 113.126C40.4978 113.126 41.3078 112.91 41.8478 112.478L41.2178 110.876ZM50.7547 103.388V108.248C50.7547 110.174 49.6927 111.146 48.1267 111.146C46.7047 111.146 45.8767 110.318 45.8767 108.572V103.388H43.6267V108.878C43.6267 111.776 45.3007 113.126 47.7667 113.126C49.0087 113.126 50.1427 112.658 50.8627 111.776V113H53.0047V103.388H50.7547ZM58.9206 113.126C61.6206 113.126 63.2766 111.956 63.2766 110.156C63.2766 106.394 57.3366 108.122 57.3366 106.178C57.3366 105.548 57.9846 105.098 59.3526 105.098C60.2706 105.098 61.1886 105.278 62.1066 105.818L62.9706 104.108C62.1066 103.586 60.6486 103.28 59.3706 103.28C56.7786 103.28 55.1406 104.468 55.1406 106.286C55.1406 110.12 61.0806 108.392 61.0806 110.228C61.0806 110.894 60.4866 111.29 59.0646 111.29C57.8586 111.29 56.5626 110.894 55.7166 110.336L54.8526 112.046C55.7166 112.658 57.3186 113.126 58.9206 113.126ZM70.4049 113H75.9129C79.9989 113 82.7889 110.48 82.7889 106.7C82.7889 102.92 79.9989 100.4 75.9129 100.4H70.4049V113ZM72.7449 111.02V102.38H75.8049C78.6129 102.38 80.4309 104.09 80.4309 106.7C80.4309 109.31 78.6129 111.02 75.8049 111.02H72.7449ZM88.732 103.28C87.184 103.28 85.69 103.676 84.664 104.468L85.546 106.106C86.266 105.512 87.382 105.152 88.462 105.152C90.064 105.152 90.856 105.926 90.856 107.24V107.384H88.372C85.456 107.384 84.376 108.644 84.376 110.246C84.376 111.92 85.762 113.126 87.958 113.126C89.398 113.126 90.442 112.658 90.982 111.83V113H93.106V107.366C93.106 104.594 91.504 103.28 88.732 103.28ZM88.426 111.488C87.274 111.488 86.59 110.966 86.59 110.156C86.59 109.454 87.004 108.878 88.534 108.878H90.856V109.994C90.478 110.984 89.524 111.488 88.426 111.488ZM98.9636 113.126C101.664 113.126 103.32 111.956 103.32 110.156C103.32 106.394 97.3796 108.122 97.3796 106.178C97.3796 105.548 98.0276 105.098 99.3956 105.098C100.314 105.098 101.232 105.278 102.15 105.818L103.014 104.108C102.15 103.586 100.692 103.28 99.4136 103.28C96.8216 103.28 95.1836 104.468 95.1836 106.286C95.1836 110.12 101.124 108.392 101.124 110.228C101.124 110.894 100.53 111.29 99.1076 111.29C97.9016 111.29 96.6056 110.894 95.7596 110.336L94.8956 112.046C95.7596 112.658 97.3616 113.126 98.9636 113.126ZM110.711 103.28C109.379 103.28 108.245 103.712 107.507 104.504V99.644H105.257V113H107.507V108.14C107.507 106.214 108.587 105.242 110.189 105.242C111.629 105.242 112.475 106.07 112.475 107.78V113H114.725V107.492C114.725 104.594 113.015 103.28 110.711 103.28ZM122.908 103.28C121.684 103.28 120.604 103.694 119.83 104.558V99.644H117.58V113H119.722V111.758C120.478 112.676 121.594 113.126 122.908 113.126C125.716 113.126 127.786 111.182 127.786 108.194C127.786 105.206 125.716 103.28 122.908 103.28ZM122.656 111.2C121.036 111.2 119.794 110.03 119.794 108.194C119.794 106.358 121.036 105.188 122.656 105.188C124.276 105.188 125.5 106.358 125.5 108.194C125.5 110.03 124.276 111.2 122.656 111.2ZM134.239 113.126C137.227 113.126 139.369 111.074 139.369 108.194C139.369 105.314 137.227 103.28 134.239 103.28C131.287 103.28 129.127 105.314 129.127 108.194C129.127 111.074 131.287 113.126 134.239 113.126ZM134.239 111.2C132.619 111.2 131.395 110.03 131.395 108.194C131.395 106.358 132.619 105.188 134.239 105.188C135.877 105.188 137.101 106.358 137.101 108.194C137.101 110.03 135.877 111.2 134.239 111.2ZM145.07 103.28C143.522 103.28 142.028 103.676 141.002 104.468L141.884 106.106C142.604 105.512 143.72 105.152 144.8 105.152C146.402 105.152 147.194 105.926 147.194 107.24V107.384H144.71C141.794 107.384 140.714 108.644 140.714 110.246C140.714 111.92 142.1 113.126 144.296 113.126C145.736 113.126 146.78 112.658 147.32 111.83V113H149.444V107.366C149.444 104.594 147.842 103.28 145.07 103.28ZM144.764 111.488C143.612 111.488 142.928 110.966 142.928 110.156C142.928 109.454 143.342 108.878 144.872 108.878H147.194V109.994C146.816 110.984 145.862 111.488 144.764 111.488ZM154.473 104.792V103.388H152.331V113H154.581V108.338C154.581 106.376 155.661 105.368 157.371 105.368C157.533 105.368 157.695 105.386 157.893 105.422V103.28C156.291 103.28 155.121 103.784 154.473 104.792ZM166.878 99.644V104.576C166.122 103.694 165.024 103.28 163.782 103.28C160.992 103.28 158.922 105.206 158.922 108.194C158.922 111.182 160.992 113.126 163.782 113.126C165.096 113.126 166.212 112.676 166.968 111.758V113H169.128V99.644H166.878ZM164.052 111.2C162.432 111.2 161.19 110.03 161.19 108.194C161.19 106.358 162.432 105.188 164.052 105.188C165.672 105.188 166.914 106.358 166.914 108.194C166.914 110.03 165.672 111.2 164.052 111.2Z" fill="#0D1A4E"/>
<defs>
<linearGradient id="paint0_linear_3128_1815" x1="80.2809" y1="28.5032" x2="87.2188" y2="68.2491" gradientUnits="userSpaceOnUse">
<stop stop-color="#3D84E6"/>
<stop offset="1" stop-color="#1254CB"/>
</linearGradient>
<linearGradient id="paint1_linear_3128_1815" x1="85.7031" y1="27.556" x2="92.641" y2="67.3018" gradientUnits="userSpaceOnUse">
<stop stop-color="#3D84E6"/>
<stop offset="1" stop-color="#1254CB"/>
</linearGradient>
<linearGradient id="paint2_linear_3128_1815" x1="77.9971" y1="28.9015" x2="84.9351" y2="68.6475" gradientUnits="userSpaceOnUse">
<stop stop-color="#3D84E6"/>
<stop offset="1" stop-color="#1254CB"/>
</linearGradient>
<linearGradient id="paint3_linear_3128_1815" x1="82.5695" y1="28.1016" x2="89.5075" y2="67.8477" gradientUnits="userSpaceOnUse">
<stop stop-color="#3D84E6"/>
<stop offset="1" stop-color="#1254CB"/>
</linearGradient>
<linearGradient id="paint4_linear_3128_1815" x1="88.2394" y1="27.1132" x2="95.1775" y2="66.859" gradientUnits="userSpaceOnUse">
<stop stop-color="#3D84E6"/>
<stop offset="1" stop-color="#1254CB"/>
</linearGradient>
</defs>
</svg>
